<svg width="79" height="29" viewBox="0 0 79 29" fill="none" xmlns="http://www.w3.org/2000/svg">
<path d="M49.7981 11.3708H58.8373C58.9729 10.1698 58.9354 9.49788 58.8793 9.00626C58.6505 6.03746 58.8033 1.65504 59.6658 0.211635C60.7555 0.0145917 62.917 -0.344112 64.5873 0.810116C66.6725 2.25104 74.0166 6.40429 77.0826 13.148C78.3499 15.9354 80.157 15.2687 77.9914 17.1659C76.1064 18.8171 72.7242 23.1865 69.1923 25.0529C67.3686 26.0167 63.19 29.1205 61.1932 28.9964C60.2346 28.9368 61.0541 24.1535 59.5767 19.8804C59.0725 18.4219 58.1107 18.4014 57.3316 18.4521C55.9645 18.5412 52.7869 18.6009 41.1921 18.8139C32.1114 18.9807 16.9249 19.2821 9.14507 19.2991C1.36521 19.316 0.861627 19.0729 0.774233 18.4335C0.302296 14.9802 -0.231456 12.5095 0.10633 10.2349C0.182613 9.72125 0.380079 9.30902 1.36639 9.58822C6.80899 11.1289 9.54964 11.3333 19.2319 11.3538C27.2172 11.3708 42.2446 11.3708 49.7968 11.3708H49.7981Z" fill="#6AAAC4"/>
</svg>
